# xmcd
#
# Track frame offsets: 
# 150
# 22067
# 35824
# 57736
# 85245
# 102803
# 120424
# 133959
# 156486
#
# Disc length: 2428 seconds
# Submitted via: tkcNetwork 1.0
# Revision: 0
# Processed by: cddbd v1.5.1PL0 Copyright (c) Steve Scherf et al.
#
DISCID=81097a09
DTITLE=Steppenwolf - Steppenwolf 7
DYEAR=1900
DGENRE=
TTITLE0=Ball Crusher
TTITLE1=Forty Days and Forty Nights
TTITLE2=Fat Jack
TTITLE3=Renegade
TTITLE4=Foggy Mental Breakdown
TTITLE5=Snowblind Friend
TTITLE6=Who Needs Ya
TTITLE7=Earschplittenloudenboomer
TTITLE8=Hippo Stomp
EXTD=
EXTT0=
EXTT1=
EXTT2=
EXTT3=
EXTT4=
EXTT5=
EXTT6=
EXTT7=
EXTT8=
PLAYORDER=
